#!OML:ASF H:\Terrain\Patient Classification 1\Walking\liu\liu.ASF
:FULLY-SPECIFIED
:DEGREES
211
root 8.330320 16.505699 -7.870840 8.021440 0.099215 -5.769980
lowerback -71.378799 23.814499 32.313999
upperback -8.818911 27.972099 37.627800
thorax 30.543598 14.118600 23.506001
lowerneck -160.093994 -64.810303 -145.453995
upperneck 148.410004 -82.225502 149.955002
head 85.135300 -33.724400 64.932602
rclavicle -0.000000 -0.000000
rhumerus -369.024017 123.181999 -824.905029
rradius 531.375977
rwrist -272.070007
rhand -325.617981 -287.367004
rfingers 71.250198
rthumb -57.911400 -586.375977
lclavicle -0.000000 -0.000000
lhumerus -507.834015 -110.214996 972.238037
lradius 267.842987
lwrist 98.718704
lhand -126.625992 -248.796005
lfingers 71.250198
lthumb 134.183990 46.681900
rfemur 102.026993 55.287498 314.128998
rtibia 0.000000
rfoot -123.627998 54.805698
rtoes -79.437798
lfemur -439.644012 -30.212099 -104.458000
ltibia 206.763992
lfoot -170.543991 155.005005
ltoes -150.270996
212
root 8.346940 16.486000 -7.723630 8.180980 -0.215262 -5.945030
lowerback -72.821999 24.234600 33.782497
upperback -9.538900 28.361101 37.562302
thorax 30.671700 14.324599 22.705601
lowerneck -157.988007 -64.254997 -145.253998
upperneck 147.837006 -81.725700 149.990997
head 84.474098 -33.564800 64.990501
rclavicle -0.000000 0.000000
rhumerus -371.114990 126.752998 -829.269043
rradius 531.619019
rwrist -272.401001
rhand -324.548004 -288.815002
rfingers 71.250198
rthumb -56.878399 -587.851990
lclavicle -0.000000 0.000000
lhumerus -509.026001 -99.265602 963.757996
lradius 266.947998
lwrist 80.323898
lhand -126.320000 -247.214996
lfingers 71.250198
lthumb 134.479004 48.244301
rfemur 105.667000 56.860600 315.306000
rtibia 0.000000
rfoot -126.724998 56.288700
rtoes -78.329498
lfemur -444.039978 -32.451202 -98.021805
ltibia 203.565002
lfoot -174.584991 155.847992
ltoes -157.951004
213
root 8.367740 16.468201 -7.573060 8.341820 -0.482203 -6.249640
lowerback -73.715904 24.756500 36.265499
upperback -10.449200 28.821199 38.257900
thorax 30.307301 14.570499 22.104700
lowerneck -158.555008 -63.984398 -144.653000
upperneck 149.628998 -81.390495 148.876007
head 85.032799 -33.438301 64.575104
rclavicle 0.000000 0.000000
rhumerus -371.920013 127.660995 -832.860046
rradius 530.374023
rwrist -269.934998
rhand -323.604004 -296.901001
rfingers 71.250198
rthumb -55.967201 -595.961975
lclavicle 0.000000 0.000000
lhumerus -509.805969 -94.765198 960.386963
lradius 264.843018
lwrist 73.652100
lhand -148.571991 -296.069000
lfingers 71.250198
lthumb 113.024994 0.685887
rfemur 109.697998 58.195000 317.536987
rtibia 0.000000
rfoot -126.622002 58.674301
rtoes -79.688004
lfemur -447.420990 -28.788700 -94.906097
ltibia 200.858002
lfoot -175.345993 150.742996
ltoes -152.010010
214
root 8.387540 16.452299 -7.427210 8.501790 -0.699848 -6.352830
lowerback -74.724106 25.223101 36.761299
upperback -10.893801 29.350201 38.500401
thorax 30.415201 14.835401 22.170601
lowerneck -159.266998 -63.669300 -144.613007
upperneck 150.281006 -80.836098 148.391998
head 85.261002 -33.186401 64.482895
rclavicle 0.000000 0.000000
rhumerus -373.627991 128.233002 -835.570007
rradius 530.739014
rwrist -267.261017
rhand -322.938995 -304.867981
rfingers 71.250198
rthumb -55.324600 -603.945984
lclavicle 0.000000 0.000000
lhumerus -511.095001 -96.046997 961.518005
lradius 262.945007
lwrist 72.268402
lhand -195.531998 -424.561005
lfingers 71.250198
lthumb 67.711304 -125.844002
rfemur 113.524002 58.798698 317.623993
rtibia 0.000000
rfoot -124.294998 60.883198
rtoes -84.319298
lfemur -451.394989 -27.601601 -93.641396
ltibia 200.807983
lfoot -173.621002 152.106003
ltoes -127.165001
215
root 8.398930 16.436501 -7.294990 8.617950 -0.999229 -6.435530
lowerback -74.018105 26.066799 36.549103
upperback -11.471400 30.571598 38.346901
thorax 29.407101 15.434600 22.194500
lowerneck -156.044998 -63.524799 -143.388000
upperneck 148.069000 -80.959305 147.585007
head 83.871498 -33.385899 63.937302
rclavicle -0.000000 -0.000000
rhumerus -378.197998 129.675995 -838.205017
rradius 534.161987
rwrist -267.707001
rhand -322.009003 -306.567993
rfingers 71.250198
rthumb -54.427101 -605.669006
lclavicle -0.000000 -0.000000
lhumerus -511.841003 -96.267502 960.891052
lradius 259.976990
lwrist 66.613403
lhand -198.941010 -440.285004
lfingers 71.250198
lthumb 64.420799 -141.464996
rfemur 117.210999 60.018501 317.906006
rtibia 0.000000
rfoot -123.923996 62.468800
rtoes -90.789604
lfemur -455.036011 -26.277800 -91.950500
ltibia 201.895996
lfoot -170.657013 158.798996
ltoes -122.650002
216
root 8.424550 16.425800 -7.121940 8.632780 -1.388750 -6.492920
lowerback -77.158600 27.387199 37.198997
upperback -10.207601 32.001900 38.199898
thorax 32.500801 16.168701 22.049698
lowerneck -153.384003 -63.463100 -143.826004
upperneck 144.436005 -80.949402 148.708008
head 82.265793 -33.436897 64.352501
rclavicle 0.000000 0.000000
rhumerus -381.553986 131.093994 -839.966980
rradius 537.336975
rwrist -268.460999
rhand -319.260986 -297.329010
rfingers 71.250198
rthumb -51.773300 -596.497009
lclavicle 0.000000 0.000000
lhumerus -510.239990 -97.516403 961.445007
lradius 255.283997
lwrist 63.230499
lhand -189.925003 -417.467010
lfingers 71.250198
lthumb 73.124199 -118.931000
rfemur 123.999008 61.982399 317.071991
rtibia -0.000000
rfoot -126.540001 64.178902
rtoes -99.973602
lfemur -454.692993 -22.889599 -93.240807
ltibia 203.101013
lfoot -169.597000 162.907013
ltoes -175.463013
217
root 8.447320 16.405300 -6.957800 8.667180 -1.570040 -6.567320
lowerback -80.360901 27.725401 37.988098
upperback -8.828290 32.095798 38.115700
thorax 35.770599 16.242100 21.770800
lowerneck -151.748993 -62.660698 -146.490997
upperneck 141.145004 -79.815002 152.600998
head 81.011497 -32.804699 66.302399
rclavicle 0.000000 0.000000
rhumerus -382.994995 133.164993 -842.772949
rradius 538.192993
rwrist -268.614990
rhand -315.384003 -285.135010
rfingers 71.250198
rthumb -48.029800 -584.390991
lclavicle 0.000000 0.000000
lhumerus -508.205994 -96.963699 959.844971
lradius 251.875992
lwrist 57.514603
lhand -168.440002 -369.779999
lfingers 71.250198
lthumb 93.858406 -72.070198
rfemur 130.026001 61.985100 316.779999
rtibia -0.000000
rfoot -128.045990 65.641998
rtoes -112.377998
lfemur -455.009003 -17.658401 -96.266602
ltibia 204.302002
lfoot -165.025009 159.761993
ltoes -218.104996
218
root 8.468020 16.380199 -6.799390 8.763900 -1.774850 -6.668120
lowerback -81.266899 27.453001 38.123001
upperback -9.515940 31.679499 38.507099
thorax 35.549099 16.029499 22.080000
lowerneck -151.673004 -61.814999 -147.156006
upperneck 143.051010 -78.699196 152.612000
head 81.463608 -32.306999 66.629097
rclavicle -0.000000 -0.000000
rhumerus -385.332977 136.537994 -846.621033
rradius 535.822998
rwrist -267.213013
rhand -315.652008 -287.915985
rfingers 71.250198
rthumb -48.289398 -587.166016
lclavicle -0.000000 -0.000000
lhumerus -510.549011 -93.955498 958.688965
lradius 250.563995
lwrist 52.705997
lhand -141.895996 -313.445007
lfingers 71.250198
lthumb 119.462997 -17.054100
rfemur 134.884995 62.396999 316.562012
rtibia 0.000000
rfoot -126.425003 68.084000
rtoes -105.082001
lfemur -455.792999 -10.911100 -99.153503
ltibia 206.582001
lfoot -160.837006 152.173996
ltoes -189.796997
